<?xml version="1.0" encoding="UTF-8" standalone="no"?>
<!DOCTYPE svg PUBLIC "-//W3C//DTD SVG 1.1//EN" "http://www.w3.org/Graphics/SVG/1.1/DTD/svg11.dtd">
<svg width="100%" height="100%" viewBox="0 0 1001 1000" version="1.1" xmlns="http://www.w3.org/2000/svg" xmlns:xlink="http://www.w3.org/1999/xlink" xml:space="preserve" xmlns:serif="http://www.serif.com/" style="fill-rule:evenodd;clip-rule:evenodd;stroke-linejoin:round;stroke-miterlimit:2;">
    <g id="Artboard1" transform="matrix(1.0051,0,0,0.994832,-247.789,-122.069)">
        <rect x="246.532" y="122.704" width="994.931" height="1005.17" style="fill:none;"/>
        <g>
            <g transform="matrix(2.90312,0,0,2.98674,116.943,75.7787)">
                <path d="M287.182,30.319C333.775,30.319 371.602,68.147 371.602,114.74C371.602,161.332 333.775,199.16 287.182,199.16C240.589,199.16 202.762,161.332 202.762,114.74C202.762,68.147 240.589,30.319 287.182,30.319ZM287.182,43.936C326.192,43.936 357.736,75.73 357.736,114.74C357.736,153.749 326.192,185.543 287.182,185.543C248.172,185.543 216.628,153.749 216.628,114.74C216.628,75.73 248.172,43.936 287.182,43.936Z"/>
            </g>
            <g transform="matrix(3.35458,0,0,3.3892,-618.886,-339.287)">
                <path d="M477.7,303.974C476.406,309.575 475.092,315.559 474.944,317.341C473.881,330.077 469.439,376.495 456.9,401.294C450.207,414.531 440.877,421.756 429.921,419.66C427.288,419.156 424.73,417.64 422.482,414.963C420.289,412.35 418.265,408.381 416.534,403.521C410.921,387.755 407.853,361.347 404.335,351.797C403.179,348.657 401.337,342.284 397.784,336.862C395.07,332.719 391.267,328.987 385.34,329.41C378.715,329.883 374.457,334.665 371.548,339.464C368.094,345.161 366.5,351.216 365.973,353.167C363.48,362.401 361.041,386.096 356.688,401.239C355.404,405.703 353.928,409.5 352.315,412.218C350.737,414.878 348.902,416.695 347.066,417.728C340.599,421.37 332.682,420.424 325.114,413.656C316.655,406.091 308.182,390.166 304.145,366.229C301.434,350.157 300.647,332.601 298.642,317.746C297.422,308.705 295.819,300.731 292.752,295.016C283.317,277.43 262.509,243.815 276.067,203.122C283.04,182.196 301.835,166.175 320.321,164.936C332.622,164.111 342.522,166.531 351.583,169.399C359.562,171.924 366.788,174.875 374.694,175.541C379.022,175.906 384.041,176.048 388.224,175.662C393.025,175.219 400.066,173.769 406.304,172.294C402.796,176.652 399.726,181.389 397.181,186.441C394.286,186.991 391.575,187.404 389.326,187.611C384.491,188.057 378.69,187.92 373.686,187.499C366.541,186.897 359.858,184.753 352.86,182.437C343.708,179.408 333.929,176.051 321.124,176.909C306.86,177.865 292.832,190.768 287.452,206.915C275.266,243.489 294.846,273.537 303.327,289.342C306.951,296.097 309.093,305.457 310.534,316.142C312.523,330.876 313.289,348.292 315.978,364.233C319.4,384.524 325.943,398.299 333.114,404.711C335.982,407.276 338.727,408.652 341.179,407.272C341.745,406.953 342.021,406.115 342.49,405.188C343.473,403.243 344.342,400.75 345.155,397.924C349.491,382.841 351.905,359.237 354.388,350.04C355.172,347.134 357.974,336.943 364.255,328.931C369.005,322.871 375.627,318.073 384.486,317.441C393.357,316.807 399.941,320.68 404.8,326.268C410.871,333.252 413.943,343.164 415.596,347.649C419.122,357.222 422.212,383.691 427.839,399.496C428.842,402.313 429.901,404.742 431.123,406.518C431.49,407.052 432.183,407.734 432.358,407.903C434.763,408.309 436.888,407.506 438.809,405.976C441.632,403.729 444.02,400.173 446.191,395.879C458.061,372.403 461.979,328.399 462.985,316.343C463.122,314.7 464.164,309.726 465.334,304.545L467.884,304.611C471.208,304.611 474.486,304.403 477.7,303.974Z"/>
            </g>
            <g transform="matrix(3.35871,0,0,3.53053,-656.344,-347.933)">
                <path d="M472.565,181.79L472.565,216.622C472.565,218.116 473.169,219.552 474.25,220.626L495.799,242.043C498.098,244.328 501.895,244.389 504.273,242.179C506.65,239.969 506.714,236.319 504.414,234.034L484.55,214.293C484.55,214.293 484.55,181.79 484.55,181.79C484.55,178.611 481.865,176.03 478.558,176.03C475.25,176.03 472.565,178.611 472.565,181.79Z"/>
            </g>
        </g>
    </g>
</svg>
