<?xml version="1.0" encoding="UTF-8" standalone="no"?>
<!DOCTYPE svg PUBLIC "-//W3C//DTD SVG 1.1//EN" "http://www.w3.org/Graphics/SVG/1.1/DTD/svg11.dtd">
<svg width="100%" height="100%" viewBox="0 0 77 82" version="1.1" xmlns="http://www.w3.org/2000/svg" xmlns:xlink="http://www.w3.org/1999/xlink" xml:space="preserve" xmlns:serif="http://www.serif.com/" style="fill-rule:evenodd;clip-rule:evenodd;">
    <g transform="matrix(1,0,0,1,-2898.25,-617.631)">
        <g id="Black-S" transform="matrix(0.614533,0,0,0.614533,2924.92,663.881)">
            <g transform="matrix(0.737213,0,0,0.737213,12.6098,-9.1826)">
                <path d="M48.828,6.787C71.973,6.787 90.82,-12.06 90.82,-35.205C90.82,-58.35 71.973,-77.197 48.828,-77.197C25.684,-77.197 6.836,-58.35 6.836,-35.205C6.836,-12.06 25.684,6.787 48.828,6.787ZM48.828,-7.373C33.447,-7.373 20.996,-19.824 20.996,-35.205C20.996,-50.586 33.447,-63.037 48.828,-63.037C64.209,-63.037 76.66,-50.586 76.66,-35.205C76.66,-19.824 64.209,-7.373 48.828,-7.373ZM42.92,-72.852L54.785,-72.852L54.785,-81.397C54.785,-84.766 52.148,-87.207 48.877,-87.207C45.703,-87.207 42.92,-84.766 42.92,-81.397L42.92,-72.852ZM76.611,-65.869L84.277,-56.885L88.135,-60.645C89.551,-62.012 90.186,-63.33 90.186,-64.99C90.186,-68.213 87.695,-70.752 84.473,-70.752C82.568,-70.752 81.25,-70.215 79.883,-68.945L76.611,-65.869ZM48.828,-26.611C53.565,-26.611 57.422,-30.469 57.422,-35.205C57.422,-38.135 55.957,-40.723 53.711,-42.285L53.711,-53.76C53.711,-56.494 51.563,-58.643 48.828,-58.643C46.094,-58.643 43.945,-56.494 43.945,-53.76L43.945,-42.285C41.699,-40.723 40.234,-38.135 40.234,-35.205C40.234,-30.469 44.092,-26.611 48.828,-26.611Z" style="fill:none;fill-rule:nonzero;stroke:black;stroke-width:1.18px;"/>
            </g>
            <path d="M13.151,-57.323L13.145,-57.405C12.872,-57.365 11.792,-57.208 11.602,-57.191C9.74,-57.019 7.566,-57.039 5.556,-57.163C5.16,-57.188 4.769,-57.216 4.389,-57.248C-3.866,-57.944 -10.745,-63.248 -22.055,-62.49C-30.154,-61.947 -38.271,-54.794 -41.326,-45.627C-47.692,-26.519 -37.704,-10.775 -33.274,-2.518C-29.137,5.191 -29.553,20.418 -27.328,33.612C-24.254,51.841 -15.988,60.091 -10.482,56.991C-5.994,54.464 -4.298,33.384 -2.54,26.872C-1.96,24.722 1.028,13.554 9.692,12.936C18.006,12.342 20.844,22.578 22.083,25.942C24.571,32.698 26.612,56.489 32.51,57.617C45.509,60.105 49.85,24.785 51.026,12.341L51.047,12.118C51.138,11.146 51.209,10.323 51.263,9.68C51.306,9.165 51.453,8.148 51.763,6.685C50.793,6.753 49.815,6.787 48.828,6.787C25.684,6.787 6.836,-12.06 6.836,-35.205C6.836,-43.314 9.149,-50.895 13.151,-57.323ZM11.541,-56.315C7.995,-50.079 5.969,-42.873 5.969,-35.205C5.969,-11.582 25.206,7.654 48.828,7.654C49.453,7.654 50.075,7.641 50.693,7.614C50.521,8.544 50.431,9.216 50.399,9.607L50.163,12.26C49.347,20.892 47.021,40.639 41.264,50.861C38.993,54.895 36.232,57.446 32.673,56.765C32.139,56.663 31.667,56.286 31.211,55.743C30.357,54.726 29.618,53.156 28.945,51.264C26.164,43.454 24.639,30.373 22.897,25.643C22.263,23.923 21.212,20.45 19.266,17.48C17.198,14.324 14.146,11.748 9.631,12.071C5.897,12.337 3.13,14.4 1.128,16.954C-1.753,20.63 -3.018,25.313 -3.377,26.646C-4.607,31.202 -5.806,42.892 -7.953,50.362C-8.482,52.2 -9.063,53.775 -9.728,54.894C-10.098,55.518 -10.477,55.993 -10.908,56.235C-12.819,57.312 -15.09,56.704 -17.327,54.704C-21.099,51.331 -24.673,44.141 -26.473,33.468C-27.807,25.561 -28.189,16.923 -29.175,9.614C-29.85,4.617 -30.815,0.231 -32.51,-2.928C-36.871,-11.057 -46.77,-26.543 -40.503,-45.352C-37.563,-54.174 -29.791,-61.102 -21.997,-61.624C-15.344,-62.07 -10.256,-60.362 -5.501,-58.789C-2.201,-57.697 0.946,-56.668 4.316,-56.384C4.703,-56.352 5.099,-56.322 5.503,-56.297C7.507,-56.173 9.67,-56.153 11.541,-56.315Z"/>
        </g>
    </g>
</svg>
