<?xml version="1.0" encoding="UTF-8" standalone="no"?>
<!DOCTYPE svg PUBLIC "-//W3C//DTD SVG 1.1//EN" "http://www.w3.org/Graphics/SVG/1.1/DTD/svg11.dtd">
<svg width="100%" height="100%" viewBox="0 0 76 81" version="1.1" xmlns="http://www.w3.org/2000/svg" xmlns:xlink="http://www.w3.org/1999/xlink" xml:space="preserve" xmlns:serif="http://www.serif.com/" style="fill-rule:evenodd;clip-rule:evenodd;">
    <g transform="matrix(1,0,0,1,-522.152,-617.555)">
        <g id="Ultralight-S" transform="matrix(1,0,0,1,-116.429,-1.07682)">
            <g transform="matrix(0.549529,0,0,0.549529,668.473,663.884)">
                <path d="M44.061,1.971C64.504,1.971 81.289,-14.81 81.289,-35.254C81.289,-55.697 64.501,-72.479 44.057,-72.479C23.572,-72.479 6.836,-55.697 6.836,-35.254C6.836,-14.81 23.575,1.971 44.061,1.971ZM44.061,-0.274C24.747,-0.274 9.043,-15.937 9.043,-35.254C9.043,-47.1 14.947,-57.571 23.967,-63.899C29.657,-67.89 36.587,-70.233 44.057,-70.233C63.374,-70.233 79.037,-54.571 79.04,-35.254C79.044,-15.937 63.378,-0.274 44.061,-0.274ZM42.237,-70.757L45.88,-70.757L45.88,-79.436C45.88,-80.483 45.101,-81.315 44.057,-81.315C43.02,-81.315 42.237,-80.483 42.237,-79.436L42.237,-70.757ZM68.427,-60.985L71.009,-58.393L77.49,-64.922C77.876,-65.309 78.099,-65.81 78.099,-66.346C78.099,-67.243 77.326,-68.016 76.335,-68.016C75.778,-68.016 75.343,-67.894 74.953,-67.462L68.427,-60.985ZM44.061,-31.153C46.273,-31.153 48.022,-32.909 48.022,-35.205C48.022,-36.752 47.102,-38.09 45.177,-38.937L45.177,-62.715C45.177,-63.289 44.676,-63.744 44.057,-63.744C43.532,-63.744 43.031,-63.289 43.031,-62.715L43.031,-39.028C41.11,-38.177 40.099,-36.839 40.099,-35.205C40.099,-32.954 41.848,-31.153 44.061,-31.153Z" style="fill:none;fill-rule:nonzero;stroke:black;stroke-width:0.5px;"/>
            </g>
            <g transform="matrix(0.285106,0,0,0.285106,560.337,580.166)">
                <path d="M473.997,301.721L472.596,301.935L468.616,302.136L466.343,316.623C465.321,328.87 461.256,373.552 449.198,397.399C446.777,402.187 444.055,406.107 440.908,408.612C438.135,410.82 435.035,411.851 431.543,411.183C430.327,410.95 429.344,409.878 428.347,408.427C426.987,406.45 425.781,403.761 424.665,400.626C419.041,384.832 415.958,358.38 412.434,348.814C411.139,345.298 408.982,338.204 405.004,332.132C400.657,325.498 394.218,320.124 384.726,320.801C376.907,321.359 371.1,325.661 366.907,331.01C360.988,338.561 358.38,348.179 357.64,350.918C355.155,360.126 352.734,383.755 348.393,398.855C347.348,402.488 346.206,405.601 344.893,407.813C344.238,408.918 343.594,409.779 342.832,410.208C339.26,412.219 335.047,410.961 330.868,407.223C323.335,400.487 316.25,386.108 312.655,364.793C309.96,348.815 309.188,331.36 307.195,316.592C305.816,306.369 303.825,297.398 300.357,290.935C291.609,274.63 271.685,243.58 284.256,205.85C290.082,188.362 305.45,174.583 320.899,173.547C334.218,172.654 344.399,176.088 353.919,179.238C360.658,181.469 367.087,183.562 373.969,184.141C378.783,184.547 384.365,184.685 389.016,184.256L401.161,182.308L405.44,176.588L405.749,176.248L388.533,179.017C384.167,179.42 378.929,179.279 374.411,178.899C366.258,178.212 358.794,175.215 350.566,172.611C341.864,169.857 332.361,167.506 320.547,168.298C303.246,169.457 285.789,184.603 279.264,204.187C266.091,243.723 286.554,276.337 295.721,293.423C298.945,299.43 300.699,307.793 301.981,317.296C303.981,332.117 304.763,349.633 307.467,365.668C311.331,388.582 319.263,403.903 327.361,411.145C333.603,416.727 340.078,417.797 345.413,414.792C346.829,413.995 348.2,412.55 349.418,410.498C350.914,407.978 352.259,404.448 353.449,400.308C357.798,385.182 360.23,361.513 362.72,352.289C363.389,349.812 365.693,341.086 371.047,334.255C374.37,330.017 378.904,326.492 385.1,326.049C392.418,325.527 397.252,329.9 400.603,335.015C404.322,340.691 406.286,347.346 407.497,350.633C411.017,360.188 414.091,386.614 419.708,402.391C421.279,406.801 423.072,410.425 425.063,412.796C426.734,414.787 428.596,415.976 430.554,416.351C440.164,418.189 448.023,411.384 453.893,399.773C466.244,375.346 470.539,329.606 471.586,317.06L473.997,301.721Z" style="fill:none;stroke:black;stroke-width:1.05px;stroke-linejoin:round;stroke-miterlimit:2;"/>
            </g>
        </g>
    </g>
</svg>
