<?xml version="1.0" encoding="UTF-8" standalone="no"?>
<!DOCTYPE svg PUBLIC "-//W3C//DTD SVG 1.1//EN" "http://www.w3.org/Graphics/SVG/1.1/DTD/svg11.dtd">
<svg width="100%" height="100%" viewBox="0 0 77 82" version="1.1" xmlns="http://www.w3.org/2000/svg" xmlns:xlink="http://www.w3.org/1999/xlink" xml:space="preserve" xmlns:serif="http://www.serif.com/" style="fill-rule:evenodd;clip-rule:evenodd;">
    <g transform="matrix(1,0,0,1,-1412.28,-617.483)">
        <g id="Regular-S" transform="matrix(1,0,0,1,122.559,0)">
            <g transform="matrix(0.540992,0,0,0.540992,1319.53,662.498)">
                <path d="M46.24,4.15C67.773,4.15 85.693,-13.721 85.693,-35.254C85.693,-56.787 67.725,-74.658 46.191,-74.658C24.707,-74.658 6.836,-56.787 6.836,-35.254C6.836,-13.721 24.756,4.15 46.24,4.15ZM46.24,-3.271C28.516,-3.271 14.355,-17.481 14.355,-35.254C14.355,-53.027 28.467,-67.236 46.191,-67.236C63.965,-67.236 78.174,-53.027 78.223,-35.254C78.272,-17.481 64.014,-3.271 46.24,-3.271ZM41.602,-72.119L50.83,-72.119L50.83,-77.393C50.83,-80.029 48.779,-82.178 46.191,-82.178C43.701,-82.178 41.602,-80.029 41.602,-77.393L41.602,-72.119ZM69.971,-64.209L76.367,-57.666L80.078,-61.426C81.055,-62.402 81.641,-63.721 81.641,-64.893C81.641,-67.334 79.688,-69.287 77.197,-69.287C75.732,-69.287 74.707,-68.848 73.682,-67.871L69.971,-64.209ZM46.24,-28.565C49.951,-28.565 52.881,-31.592 52.881,-35.205C52.881,-37.842 51.416,-40.088 49.219,-41.162L49.219,-59.082C49.219,-60.791 47.9,-62.109 46.191,-62.109C44.531,-62.109 43.213,-60.791 43.213,-59.082L43.213,-41.162C41.065,-40.039 39.6,-37.793 39.6,-35.205C39.6,-31.592 42.529,-28.565 46.24,-28.565Z" style="fill:none;fill-rule:nonzero;stroke:black;stroke-width:0.5px;"/>
            </g>
            <g transform="matrix(0.285106,0,0,0.285106,1212.07,579.089)">
                <path d="M465.754,314.216L465.754,314.223C465.754,314.7 465.437,315.103 465.002,315.232L465.137,314.486C465.175,314.399 465.21,314.31 465.239,314.221L464.702,314.223L464.12,314.194L463.978,314.981C464.059,315.142 464.12,315.246 464.12,315.246C464.057,315.246 463.995,315.24 463.934,315.229L463.721,316.404C462.712,328.503 458.761,372.655 446.85,396.212C444.625,400.614 442.163,404.251 439.27,406.554C437.124,408.263 434.74,409.117 432.038,408.599C431.388,408.475 431.047,407.712 430.514,406.937C429.262,405.116 428.171,402.63 427.143,399.744C421.516,383.941 418.428,357.476 414.902,347.905C413.268,343.469 410.246,333.659 404.242,326.753C399.529,321.331 393.145,317.563 384.538,318.177C375.908,318.794 369.464,323.482 364.836,329.387C358.635,337.298 355.875,347.363 355.101,350.232C352.617,359.432 350.202,383.041 345.865,398.128C345.037,401.005 344.15,403.541 343.149,405.521C342.6,406.607 342.204,407.542 341.541,407.916C338.845,409.434 335.776,408.083 332.621,405.262C325.371,398.779 318.709,384.871 315.249,364.356C312.559,348.406 311.791,330.982 309.802,316.241C308.374,305.657 306.265,296.383 302.675,289.691C294.137,273.777 274.481,243.508 286.751,206.681C292.229,190.241 306.551,177.145 321.075,176.172C333.992,175.306 343.859,178.68 353.092,181.736C360.033,184.033 366.66,186.166 373.748,186.763C377.836,187.107 382.462,187.261 386.64,186.966C388.612,183.013 390.919,179.255 393.491,175.701L388.292,176.398C384.069,176.787 379.002,176.646 374.632,176.278C366.672,175.607 359.393,172.645 351.36,170.103C342.378,167.261 332.565,164.855 320.371,165.673C302.145,166.895 283.643,182.724 276.768,203.355C263.295,243.794 284.027,277.19 293.403,294.666C296.504,300.446 298.141,308.505 299.374,317.648C301.378,332.495 302.164,350.042 304.873,366.106C308.872,389.819 317.227,405.612 325.607,413.106C332.884,419.613 340.485,420.587 346.704,417.085C348.447,416.103 350.181,414.367 351.68,411.841C353.267,409.166 354.715,405.428 355.977,401.035C360.33,385.896 362.768,362.207 365.26,352.974C365.893,350.628 368.046,342.348 373.118,335.878C376.005,332.194 379.903,329.058 385.287,328.673C391.519,328.228 395.549,332.101 398.402,336.457C401.992,341.935 403.86,348.37 405.029,351.542C408.547,361.093 411.616,387.505 417.23,403.273C418.926,408.035 420.899,411.928 423.048,414.488C425.169,417.014 427.575,418.459 430.06,418.934C440.72,420.974 449.728,413.84 456.241,400.96C468.738,376.243 473.148,329.973 474.207,317.279L474.903,313.58C471.901,313.978 468.847,314.18 465.754,314.216ZM464.994,315.274C467.9,315.265 470.773,315.115 473.603,314.798L473.159,317.192C472.104,329.826 467.74,375.884 455.302,400.486C449.046,412.857 440.497,419.86 430.258,417.901C427.983,417.466 425.795,416.123 423.854,413.811C421.768,411.327 419.867,407.541 418.222,402.92C412.606,387.148 409.535,360.731 406.016,351.178C404.831,347.96 402.924,341.438 399.283,335.88C396.23,331.221 391.879,327.148 385.212,327.624C379.503,328.031 375.351,331.323 372.29,335.229C367.105,341.843 364.891,350.301 364.244,352.7C361.753,361.929 359.317,385.61 354.966,400.744C353.733,405.036 352.326,408.691 350.775,411.304C349.388,413.64 347.8,415.26 346.188,416.168C340.322,419.471 333.171,418.459 326.308,412.321C318.041,404.928 309.856,389.324 305.911,365.931C303.203,349.879 302.419,332.344 300.417,317.507C299.164,308.221 297.48,300.04 294.331,294.169C285.038,276.849 264.413,243.766 277.767,203.688C284.501,183.475 302.585,167.92 320.441,166.723C332.483,165.916 342.172,168.299 351.043,171.106C359.154,173.673 366.507,176.649 374.543,177.326C378.972,177.699 384.108,177.84 388.388,177.445L391.248,177.063C389.309,179.907 387.539,182.872 385.971,185.956C382.004,186.192 377.68,186.038 373.837,185.714C366.831,185.124 360.283,183.007 353.423,180.737C344.075,177.643 334.082,174.245 321.004,175.122C306.11,176.12 291.37,189.489 285.753,206.349C273.362,243.537 293.126,274.118 301.748,290.189C305.289,296.789 307.351,305.942 308.76,316.381C310.75,331.134 311.52,348.57 314.211,364.531C317.725,385.366 324.557,399.462 331.92,406.046C335.483,409.233 339.012,410.548 342.057,408.833C342.452,408.61 342.797,408.268 343.105,407.817C343.437,407.331 343.735,406.693 344.088,405.996C345.114,403.966 346.028,401.368 346.876,398.419C351.215,383.327 353.632,359.71 356.117,350.506C356.877,347.689 359.576,337.803 365.665,330.036C370.118,324.354 376.308,319.82 384.613,319.227C392.843,318.64 398.941,322.258 403.448,327.443C409.356,334.239 412.307,343.903 413.915,348.268C417.44,357.838 420.526,384.298 426.152,400.097C427.215,403.083 428.352,405.65 429.647,407.533C429.996,408.04 430.277,408.538 430.593,408.888C430.951,409.285 431.357,409.541 431.84,409.633C434.858,410.21 437.528,409.286 439.925,407.377C442.92,404.993 445.486,401.243 447.789,396.687C459.744,373.042 463.746,328.758 464.766,316.536L464.994,315.274Z"/>
            </g>
        </g>
    </g>
</svg>
